<svg width="20" height="20" viewBox="0 0 20 20" fill="none" xmlns="http://www.w3.org/2000/svg">
<path d="M10 13.5C9.07177 13.5 8.18153 13.1313 7.52515 12.4749C6.86877 11.8185 6.50002 10.9283 6.50002 10C6.50002 9.07174 6.86877 8.1815 7.52515 7.52513C8.18153 6.86875 9.07177 6.5 10 6.5C10.9283 6.5 11.8185 6.86875 12.4749 7.52513C13.1313 8.1815 13.5 9.07174 13.5 10C13.5 10.9283 13.1313 11.8185 12.4749 12.4749C11.8185 13.1313 10.9283 13.5 10 13.5V13.5ZM17.43 10.97C17.47 10.65 17.5 10.33 17.5 10C17.5 9.67 17.47 9.34 17.43 9L19.54 7.37C19.73 7.22 19.78 6.95 19.66 6.73L17.66 3.27C17.54 3.05 17.27 2.96 17.05 3.05L14.56 4.05C14.04 3.66 13.5 3.32 12.87 3.07L12.5 0.42C12.46 0.18 12.25 0 12 0H8.00002C7.75002 0 7.54002 0.18 7.50002 0.42L7.13002 3.07C6.50002 3.32 5.96002 3.66 5.44002 4.05L2.95002 3.05C2.73002 2.96 2.46002 3.05 2.34002 3.27L0.340022 6.73C0.210022 6.95 0.270023 7.22 0.460023 7.37L2.57002 9C2.53002 9.34 2.50002 9.67 2.50002 10C2.50002 10.33 2.53002 10.65 2.57002 10.97L0.460023 12.63C0.270023 12.78 0.210022 13.05 0.340022 13.27L2.34002 16.73C2.46002 16.95 2.73002 17.03 2.95002 16.95L5.44002 15.94C5.96002 16.34 6.50002 16.68 7.13002 16.93L7.50002 19.58C7.54002 19.82 7.75002 20 8.00002 20H12C12.25 20 12.46 19.82 12.5 19.58L12.87 16.93C13.5 16.67 14.04 16.34 14.56 15.94L17.05 16.95C17.27 17.03 17.54 16.95 17.66 16.73L19.66 13.27C19.78 13.05 19.73 12.78 19.54 12.63L17.43 10.97Z" fill="#494646"/>
</svg>
