<svg xmlns="http://www.w3.org/2000/svg" height="48" viewBox="0 -960 960 960" width="48"><path d="M184-692q-14-15-19-34t-5-39q0-47.917 33.25-81.458Q226.5-880 274-880t80.75 33.542Q388-812.917 388-765q0 20-5 39t-19 34H184ZM396-80q-63.938 0-109.469-45Q241-170 241-235h-20q-6 0-10.125-3.889T206-249l-36-369q-2-13.5 7.25-23.25T200-651h148q13.5 0 22.75 9.75T378-618l-36 369q-.75 6.222-4.875 10.111Q333-235 327-235h-26q0 39 27.867 67 27.868 28 67 28Q435-140 462.5-167.906 490-195.812 490-235v-490q0-65 45-110t110-45q65 0 110 45t45 110v615q0 12.75-8.675 21.375Q782.649-80 769.825-80 757-80 748.5-88.625T740-110v-615q0-39.188-27.867-67.094-27.867-27.906-67-27.906Q606-820 578-792.094 550-764.188 550-725v490q0 65-45.237 110Q459.525-80 396-80ZM261-295h26l28-296h-82l28 296Zm26-296h-54 82-28Z"/></svg>