<svg width="24" height="26" viewBox="0 0 24 26" fill="none" xmlns="http://www.w3.org/2000/svg">
<path d="M12 0C8.81846 0.00344108 5.76821 1.26883 3.51852 3.51852C1.26883 5.76821 0.00344108 8.81846 0 12V22.444C0.00105872 23.3868 0.376048 24.2907 1.0427 24.9573C1.70935 25.624 2.61322 25.9989 3.556 26H6C6.26522 26 6.51957 25.8946 6.70711 25.7071C6.89464 25.5196 7 25.2652 7 25V15C7 14.7348 6.89464 14.4804 6.70711 14.2929C6.51957 14.1054 6.26522 14 6 14H2V12C2 9.34784 3.05357 6.8043 4.92893 4.92893C6.8043 3.05357 9.34784 2 12 2C14.6522 2 17.1957 3.05357 19.0711 4.92893C20.9464 6.8043 22 9.34784 22 12V14H18C17.7348 14 17.4804 14.1054 17.2929 14.2929C17.1054 14.4804 17 14.7348 17 15V25C17 25.2652 17.1054 25.5196 17.2929 25.7071C17.4804 25.8946 17.7348 26 18 26H20.444C21.3868 25.9989 22.2907 25.624 22.9573 24.9573C23.624 24.2907 23.9989 23.3868 24 22.444V12C23.9966 8.81846 22.7312 5.76821 20.4815 3.51852C18.2318 1.26883 15.1815 0.00344108 12 0Z" fill="#0F0D0D"/>
</svg>
