<svg width="23" height="19" viewBox="0 0 23 19" fill="none" xmlns="http://www.w3.org/2000/svg">
<path d="M8 3C9.06087 3 10.0783 3.42143 10.8284 4.17157C11.5786 4.92172 12 5.93913 12 7C12 8.06087 11.5786 9.07828 10.8284 9.82843C10.0783 10.5786 9.06087 11 8 11C6.93913 11 5.92172 10.5786 5.17157 9.82843C4.42143 9.07828 4 8.06087 4 7C4 5.93913 4.42143 4.92172 5.17157 4.17157C5.92172 3.42143 6.93913 3 8 3V3ZM8 13C10.67 13 16 14.34 16 17V19H0V17C0 14.34 5.33 13 8 13ZM15.76 3.36C17.78 5.56 17.78 8.61 15.76 10.63L14.08 8.94C14.92 7.76 14.92 6.23 14.08 5.05L15.76 3.36ZM19.07 0C23 4.05 22.97 10.11 19.07 14L17.44 12.37C20.21 9.19 20.21 4.65 17.44 1.63L19.07 0Z" fill="#000000"/>
</svg>
