<svg width="23" height="20" viewBox="0 0 23 20" fill="none" xmlns="http://www.w3.org/2000/svg">
<path d="M1 1.27L2.28 0L21 18.72L19.73 20L15.73 16C15.9 16.31 16 16.64 16 17V19H0V17C0 14.34 5.33 13 8 13C9.77 13 12.72 13.59 14.5 14.77L10.12 10.39C9.5 10.78 8.78 11 8 11C6.93913 11 5.92172 10.5786 5.17157 9.82843C4.42143 9.07828 4 8.06087 4 7C4 6.22 4.22 5.5 4.61 4.88L1 1.27ZM8 3C9.06087 3 10.0783 3.42143 10.8284 4.17157C11.5786 4.92172 12 5.93913 12 7V7.17L7.83 3H8ZM15.76 3.36C17.78 5.56 17.78 8.61 15.76 10.63L14.08 8.94C14.92 7.76 14.92 6.23 14.08 5.05L15.76 3.36ZM19.07 0C23 4.05 22.97 10.11 19.07 14L17.44 12.37C20.21 9.19 20.21 4.65 17.44 1.63L19.07 0Z" fill="#9C0707"/>
</svg>
