<svg width="50" height="93" viewBox="0 0 50 93" fill="none" xmlns="http://www.w3.org/2000/svg">
<path fill-rule="evenodd" clip-rule="evenodd" d="M11.7628 73.8622C11.7925 73.9104 11.8196 73.9602 11.8441 74.0113L14.6714 78.9066C16.8218 82.5868 20.3392 85.2682 24.4576 86.3667C28.576 87.4652 32.9617 86.8917 36.6592 84.7713L36.7948 84.6967C40.4339 82.5266 43.0758 79.0148 44.1522 74.9168C45.2287 70.8188 44.6538 66.462 42.5511 62.7835L24.55 31.5952C23.4582 31.5595 22.4078 31.169 21.5579 30.4828C20.708 29.7966 20.1049 28.8521 19.84 27.7924C19.5751 26.7327 19.6627 25.6155 20.0897 24.61C20.5166 23.6046 21.2597 22.7657 22.2062 22.2204C23.1527 21.6752 24.2511 21.4533 25.3351 21.5883C26.419 21.7233 27.4295 22.208 28.2133 22.9688C28.9971 23.7296 29.5116 24.7251 29.6788 25.8046C29.8461 26.8841 29.6569 27.9886 29.1401 28.9509L47.148 60.1393C49.9521 65.0155 50.726 70.799 49.3027 76.2409C47.8795 81.6829 44.3731 86.3468 39.5407 89.2258C39.4104 89.3213 39.272 89.4052 39.1272 89.4767C34.2442 92.2178 28.4827 92.9402 23.0741 91.4895C17.6655 90.0389 13.0389 86.5302 10.183 81.7135C10.0968 81.587 10.0219 81.4531 9.95926 81.3135L7.24723 76.6284L7.16587 76.4996C6.84576 75.9775 6.33816 75.5975 5.747 75.4374C5.15584 75.2773 4.52584 75.3493 3.98601 75.6386C3.68462 75.8135 3.35172 75.9274 3.00632 75.9737C2.66092 76.02 2.30977 75.9978 1.97294 75.9084C1.63611 75.819 1.32019 75.6641 1.04321 75.4526C0.766237 75.2411 0.533626 74.9772 0.358668 74.6758C0.18371 74.3744 0.0698312 74.0415 0.0235283 73.6961C-0.0227746 73.3507 -0.000592648 72.9995 0.0888089 72.6627C0.17821 72.3259 0.333083 72.01 0.544578 71.733C0.756074 71.456 1.02005 71.2234 1.32144 71.0484C3.07661 70.0427 5.15809 69.7712 7.11251 70.2931C9.06693 70.8151 10.7359 72.0881 11.756 73.835L11.7628 73.8622ZM30.747 8.18523e-07C29.4452 -0.000742291 28.194 0.504523 27.2579 1.40909C26.3217 2.31366 25.7737 3.54669 25.7297 4.84775L15.6816 10.6515C15.6305 10.676 15.5808 10.7031 15.5325 10.7329C11.7676 12.916 9.0218 16.5028 7.89703 20.707C6.77225 24.9113 7.36024 29.3899 9.53211 33.1614L9.62703 33.3241L9.7084 33.4597L30.6249 69.6924C30.9206 70.2333 30.9936 70.8682 30.8283 71.462C30.6738 72.056 30.2913 72.5652 29.7639 72.8791C29.5615 72.992 29.3766 73.1336 29.2147 73.2994V73.2994C28.7619 73.7725 28.4992 74.3958 28.4767 75.0503C28.4542 75.7047 28.6734 76.3446 29.0927 76.8476C29.5119 77.3507 30.1017 77.6818 30.7495 77.7777C31.3973 77.8736 32.0577 77.7275 32.6047 77.3675C34.2343 76.341 35.4179 74.739 35.9204 72.8798C36.4229 71.0207 36.2074 69.0405 35.3168 67.333C35.2451 67.1605 35.1541 66.9968 35.0456 66.8448L14.2511 30.829L14.1697 30.6799L14.0748 30.5104C12.6177 27.9552 12.2276 24.9282 12.9893 22.0871C13.751 19.246 15.6029 16.8202 18.1428 15.3365L18.2784 15.2552L28.3197 9.45822C28.992 9.81663 29.7371 10.0172 30.4985 10.0448C31.2599 10.0723 32.0176 9.92613 32.714 9.61725C33.4105 9.30837 34.0275 8.84494 34.5182 8.2621C35.0088 7.67927 35.3604 6.99235 35.546 6.25343C35.7317 5.51451 35.7466 4.743 35.5897 3.99745C35.4328 3.2519 35.1081 2.55189 34.6404 1.95049C34.1726 1.3491 33.574 0.862131 32.8901 0.526529C32.2061 0.190926 31.4546 0.0154886 30.6927 0.0135535L30.747 8.18523e-07Z" fill="#F21B1B"/>
</svg>
