<?xml version="1.0" encoding="utf-8"?>
<svg viewBox="0 0 13 12" width="13" height="12" fill="none" xmlns="http://www.w3.org/2000/svg">
  <path d="M 7.543 12 L 7.543 10.937 C 8.651 10.617 9.557 10.003 10.26 9.094 C 10.963 8.186 11.314 7.154 11.314 6 C 11.314 4.846 10.603 3.712 9.906 2.798 C 9.209 1.884 8.663 1.371 7.543 1.063 L 7.543 0 C 8.96 0.32 10.114 1.037 11.006 2.151 C 11.897 3.266 12.343 4.549 12.343 6 C 12.343 7.451 11.897 8.734 11.006 9.849 C 10.114 10.963 8.96 11.68 7.543 12 Z M 0 8.074 L 0 3.96 L 2.743 3.96 L 6.171 0.531 L 6.171 11.503 L 2.743 8.074 L 0 8.074 Z M 7.2 8.897 L 7.2 3.12 C 7.829 3.314 8.329 3.68 8.7 4.217 C 9.071 4.754 9.257 5.354 9.257 6.017 C 9.257 6.669 9.069 7.263 8.691 7.8 C 8.314 8.337 7.817 8.703 7.2 8.897 Z M 5.143 3.137 L 3.206 4.989 L 1.029 4.989 L 1.029 7.046 L 3.206 7.046 L 5.143 8.914 L 5.143 3.137 Z" fill="#353637"/>
</svg>