<svg width="19" height="28" viewBox="0 0 19 28" fill="none" xmlns="http://www.w3.org/2000/svg">
<g clip-path="url(#clip0_1_2)">
<g clip-path="url(#clip1_1_2)">
<path d="M14.7516 5.43539C14.7516 2.43351 12.3181 0 9.31624 0C6.31436 0 3.88086 2.43351 3.88086 5.43539V13.4077C3.88086 16.4096 6.31436 18.8431 9.31624 18.8431C12.3181 18.8431 14.7516 16.4096 14.7516 13.4077V5.43539Z" fill="#0F0D0D"/>
<path d="M0.906172 12.2445C0.66584 12.2445 0.435352 12.34 0.265412 12.5099C0.0954714 12.6799 0 12.9104 0 13.1507C0 17.9818 3.69688 21.9658 8.41039 22.4224V26.1882H4.7868C4.66596 26.1852 4.54575 26.2065 4.43324 26.2507C4.32074 26.2949 4.21821 26.3611 4.1317 26.4455C4.04518 26.5299 3.97643 26.6308 3.92949 26.7422C3.88255 26.8536 3.85837 26.9732 3.85837 27.0941C3.85837 27.215 3.88255 27.3346 3.92949 27.446C3.97643 27.5574 4.04518 27.6583 4.1317 27.7427C4.21821 27.8271 4.32074 27.8934 4.43324 27.9375C4.54575 27.9817 4.66596 28.003 4.7868 28H13.8463C14.0827 27.9942 14.3075 27.8962 14.4727 27.7269C14.6378 27.5577 14.7302 27.3306 14.7302 27.0941C14.7302 26.8576 14.6378 26.6305 14.4727 26.4613C14.3075 26.292 14.0827 26.194 13.8463 26.1882H10.2227V22.4219C14.9363 21.9647 18.6331 17.9813 18.6331 13.1502C18.6273 12.9138 18.5293 12.689 18.3601 12.5238C18.1908 12.3587 17.9637 12.2663 17.7272 12.2663C17.4908 12.2663 17.2636 12.3587 17.0944 12.5238C16.9251 12.689 16.8271 12.9138 16.8213 13.1502C16.8213 17.2878 13.4548 20.6544 9.31711 20.6544C5.17945 20.6544 1.81234 17.2884 1.81234 13.1507C1.81234 12.9104 1.71687 12.6799 1.54693 12.5099C1.37699 12.34 1.1465 12.2445 0.906172 12.2445Z" fill="#0F0D0D"/>
<line x1="1.38898" y1="2.26597" x2="17.111" y2="25.4353" stroke="#0F0D0D" stroke-width="2" stroke-linecap="round"/>
</g>
</g>
<defs>
<clipPath id="clip0_1_2">
<rect width="19" height="28" fill="white"/>
</clipPath>
<clipPath id="clip1_1_2">
<rect width="19" height="28" fill="white"/>
</clipPath>
</defs>
</svg>
