<svg width="624" height="750" viewBox="0 0 624 750" fill="none" xmlns="http://www.w3.org/2000/svg">
<path d="M614.44 570.333C601.997 557.891 583.331 557.891 570.883 570.333L499.331 641.891V32.104C499.331 14.9947 485.331 0.99469 468.221 0.99469C451.112 0.99469 437.112 14.9947 437.112 32.104V641.877L365.555 570.32C353.112 557.877 334.445 557.877 321.997 570.32C309.555 582.763 309.555 601.429 321.997 613.877L446.44 738.32C447.997 739.877 449.549 741.429 451.107 742.987L452.664 744.544C454.221 744.544 454.221 746.101 455.773 746.101C457.331 746.101 457.331 746.101 458.883 747.659C460.44 747.659 460.44 747.659 461.992 749.216H468.216H474.44C475.997 749.216 475.997 749.216 477.549 747.659C479.107 747.659 479.107 747.659 480.659 746.101C482.216 746.101 482.216 744.544 483.768 744.544C483.768 744.544 485.325 744.544 485.325 742.987C486.883 741.429 488.435 739.877 489.992 738.32L614.435 613.877C626.888 601.435 626.888 582.768 614.44 570.325L614.44 570.333Z" fill="black"/>
<path d="M303.333 134.773L174.224 5.664C172.667 5.664 172.667 4.10667 171.115 4.10667C169.557 4.10667 169.557 2.54934 168.005 2.54934C166.448 2.54934 166.448 2.54934 164.896 0.992004H161.787C158.667 0.997213 155.557 0.997213 150.891 0.997213H147.781C146.224 0.997213 146.224 0.997213 144.672 2.55455C143.115 2.55455 143.115 4.11188 141.563 4.11188C140.005 4.11188 140.005 5.66921 138.453 5.66921L9.34413 134.779C-3.09854 147.221 -3.09854 165.888 9.34413 178.336C21.7868 190.779 40.4535 190.779 52.9015 178.336L126 106.773V716.56C126 733.669 140 747.669 157.109 747.669C174.219 747.669 188.219 733.669 188.219 716.56L188.224 106.773L259.781 178.331C266 184.555 273.776 187.664 281.557 187.664C289.333 187.664 297.115 184.555 303.333 178.331C315.776 165.888 315.776 147.221 303.333 134.773V134.773Z" fill="black"/>
</svg>
