<svg width="260" height="250" viewBox="0 0 260 250" fill="none" xmlns="http://www.w3.org/2000/svg">
<rect x="1" y="1" width="258" height="248" rx="9" stroke="#0F0D0D" stroke-width="2"/>
<rect x="18" y="205" width="108" height="26" rx="5" stroke="#0F0D0D" stroke-width="2"/>
<path d="M42.1189 222H44.9021C47.4861 222 48.9158 220.4 48.9158 217.775V217.764C48.9158 215.145 47.4802 213.545 44.9021 213.545H42.1189V222ZM42.9216 221.273V214.271H44.8552C46.9177 214.271 48.0955 215.59 48.0955 217.77V217.781C48.0955 219.961 46.9236 221.273 44.8552 221.273H42.9216ZM53.151 222.105C54.9147 222.105 56.0221 220.857 56.0221 218.848V218.836C56.0221 216.826 54.9147 215.584 53.151 215.584C51.3873 215.584 50.2857 216.826 50.2857 218.836V218.848C50.2857 220.857 51.3873 222.105 53.151 222.105ZM53.151 221.414C51.8502 221.414 51.0768 220.441 51.0768 218.848V218.836C51.0768 217.242 51.8502 216.275 53.151 216.275C54.4518 216.275 55.2252 217.242 55.2252 218.836V218.848C55.2252 220.441 54.4518 221.414 53.151 221.414ZM57.6323 222H58.4057V218.25C58.4057 217.061 59.1616 216.275 60.2749 216.275C61.3706 216.275 61.9155 216.891 61.9155 218.092V222H62.6889V217.898C62.6889 216.428 61.8862 215.584 60.4799 215.584C59.4956 215.584 58.8159 216.035 58.4819 216.797H58.4057V215.689H57.6323V222ZM64.598 216.662H65.1898L66.0335 213.545H65.1312L64.598 216.662ZM70.0871 222.041C70.2746 222.041 70.4503 222.023 70.6261 221.994V221.326C70.4679 221.344 70.3507 221.35 70.175 221.35C69.4601 221.35 69.1847 221.027 69.1847 220.254V216.34H70.6261V215.689H69.1847V214.049H68.382V215.689H67.3683V216.34H68.382V220.43C68.382 221.578 68.88 222.041 70.0871 222.041ZM74.8251 222H75.6688L76.6063 219.41H80.1629L81.1004 222H81.9442L78.7801 213.545H77.9833L74.8251 222ZM78.3465 214.594H78.4168L79.911 218.719H76.8524L78.3465 214.594ZM83.3845 222H84.1579V213.176H83.3845V222ZM86.2076 222H86.981V213.176H86.2076V222ZM91.5209 222.105C93.2846 222.105 94.392 220.857 94.392 218.848V218.836C94.392 216.826 93.2846 215.584 91.5209 215.584C89.7572 215.584 88.6557 216.826 88.6557 218.836V218.848C88.6557 220.857 89.7572 222.105 91.5209 222.105ZM91.5209 221.414C90.2201 221.414 89.4467 220.441 89.4467 218.848V218.836C89.4467 217.242 90.2201 216.275 91.5209 216.275C92.8217 216.275 93.5951 217.242 93.5951 218.836V218.848C93.5951 220.441 92.8217 221.414 91.5209 221.414ZM96.969 222H97.7776L99.3303 216.762H99.4065L100.959 222H101.774L103.573 215.689H102.799L101.387 221.045H101.317L99.758 215.689H98.9905L97.4319 221.045H97.3616L95.9612 215.689H95.1819L96.969 222Z" fill="#272525"/>
<path d="M141.5 205H239.5C242.261 205 244.5 207.239 244.5 210V226C244.5 228.761 242.261 231 239.5 231H141.5C138.739 231 136.5 228.761 136.5 226V210C136.5 207.239 138.739 205 141.5 205Z" fill="white" stroke="#0F0D0D" stroke-width="2"/>
<path d="M185.77 213.328C183.286 213.328 181.698 215.027 181.698 217.77C181.698 220.512 183.262 222.217 185.77 222.217C188.272 222.217 189.831 220.512 189.831 217.77C189.831 215.033 188.266 213.328 185.77 213.328ZM185.77 214.881C187.147 214.881 188.026 216 188.026 217.77C188.026 219.533 187.147 220.664 185.77 220.664C184.381 220.664 183.508 219.533 183.508 217.77C183.508 216 184.399 214.881 185.77 214.881ZM193.228 222V219.451L194.066 218.461L196.521 222H198.642L195.343 217.254L198.425 213.545H196.456L193.333 217.312H193.228V213.545H191.458V222H193.228Z" fill="#272525"/>
<path d="M20.1581 104.84L18.9647 108.814H20.7801L21.5164 104.84H20.1581ZM23.0716 104.84L21.9735 108.814H23.7889L24.43 104.84H23.0716ZM24.6637 111.309C24.6637 113.105 25.8951 114.235 27.774 114.235C29.7164 114.235 30.8844 113.13 30.8844 111.156V104.84H28.9674V111.144C28.9674 112.045 28.5357 112.521 27.7486 112.521C27.0123 112.521 26.5299 112.045 26.5172 111.309H24.6637ZM35.3011 112.718C34.66 112.718 34.2093 112.4 34.2093 111.88C34.2093 111.378 34.5965 111.093 35.39 111.036L36.8055 110.947V111.461C36.8055 112.172 36.1581 112.718 35.3011 112.718ZM34.6917 114.108C35.5995 114.108 36.3612 113.727 36.723 113.086H36.8373V114H38.6273V109.22C38.6273 107.722 37.5799 106.846 35.7264 106.846C33.9681 106.846 32.7811 107.659 32.6605 108.954H34.3617C34.514 108.535 34.9583 108.306 35.6249 108.306C36.3866 108.306 36.8055 108.636 36.8055 109.22V109.792L35.1107 109.893C33.3714 109.995 32.4002 110.731 32.4002 112C32.4002 113.283 33.346 114.108 34.6917 114.108ZM46.586 109.468C46.4337 107.875 45.3229 106.846 43.4693 106.846C41.2794 106.846 40.0479 108.16 40.0479 110.483C40.0479 112.832 41.2857 114.152 43.4693 114.152C45.2911 114.152 46.4337 113.143 46.586 111.575H44.8595C44.7198 112.267 44.2247 112.635 43.4693 112.635C42.4791 112.635 41.9142 111.88 41.9142 110.483C41.9142 109.106 42.4728 108.363 43.4693 108.363C44.2564 108.363 44.7325 108.801 44.8595 109.468H46.586ZM50.0062 109.734H49.8919V104.326H48.0448V114H49.8919V111.677L50.3998 111.156L52.4437 114H54.6336L51.7835 110.001L54.4496 106.999H52.3485L50.0062 109.734ZM59.7169 114V106.478H62.4654V104.84H55.0514V106.478H57.7999V114H59.7169ZM63.1878 114H65.035V110.122C65.035 109.138 65.7269 108.541 66.7362 108.541C67.0345 108.541 67.4662 108.598 67.6122 108.655V106.973C67.4535 106.916 67.1424 106.884 66.8885 106.884C65.9999 106.884 65.2762 107.417 65.0921 108.116H64.9779V106.999H63.1878V114ZM68.8107 114H70.6578V106.999H68.8107V114ZM69.7374 106.021C70.3976 106.021 70.8292 105.634 70.8292 105.088C70.8292 104.536 70.3976 104.155 69.7374 104.155C69.0709 104.155 68.6456 104.536 68.6456 105.088C68.6456 105.634 69.0709 106.021 69.7374 106.021ZM76.5218 106.884C75.557 106.884 74.7635 107.36 74.3827 108.147H74.2684V106.999H72.4784V116.323H74.3255V112.927H74.4398C74.7826 113.67 75.5506 114.108 76.5536 114.108C78.3055 114.108 79.3783 112.756 79.3783 110.496C79.3783 108.23 78.2928 106.884 76.5218 106.884ZM75.8934 112.565C74.9159 112.565 74.3065 111.785 74.3065 110.502C74.3065 109.22 74.9159 108.433 75.8998 108.433C76.8837 108.433 77.4803 109.214 77.4803 110.496C77.4803 111.791 76.89 112.565 75.8934 112.565ZM82.2145 108.814L83.3063 104.84H81.4972L80.8497 108.814H82.2145ZM85.128 108.814L86.3151 104.84H84.506L83.7633 108.814H85.128ZM100.95 106.999H99.1158L98.0748 112.02H97.9606L96.7291 106.999H94.9645L93.7394 112.02H93.6251L92.5841 106.999H90.7115L92.5778 114H94.5201L95.7579 109.169H95.8722L97.1227 114H99.0904L100.95 106.999ZM105.031 114.152C107.182 114.152 108.477 112.788 108.477 110.496C108.477 108.224 107.163 106.846 105.031 106.846C102.898 106.846 101.584 108.23 101.584 110.496C101.584 112.788 102.879 114.152 105.031 114.152ZM105.031 112.642C104.04 112.642 103.482 111.861 103.482 110.496C103.482 109.15 104.047 108.357 105.031 108.357C106.008 108.357 106.579 109.15 106.579 110.496C106.579 111.854 106.015 112.642 105.031 112.642ZM116.271 106.999H114.424V111.036C114.424 111.969 113.929 112.546 113.008 112.546C112.158 112.546 111.72 112.051 111.72 111.086V106.999H109.873V111.562C109.873 113.188 110.812 114.152 112.323 114.152C113.383 114.152 114.037 113.689 114.367 112.876H114.481V114H116.271V106.999ZM118.136 114H119.983V104.326H118.136V114ZM124.362 114.108C125.333 114.108 126.127 113.657 126.501 112.902H126.615V114H128.405V104.326H126.558V108.116H126.45C126.089 107.341 125.308 106.884 124.362 106.884C122.604 106.884 121.512 108.262 121.512 110.49C121.512 112.724 122.597 114.108 124.362 114.108ZM124.99 108.433C125.974 108.433 126.577 109.227 126.577 110.502C126.577 111.785 125.981 112.565 124.99 112.565C124 112.565 123.41 111.791 123.41 110.496C123.41 109.214 124.006 108.433 124.99 108.433ZM133.633 114H135.481V104.326H133.633V114ZM137.365 114H139.212V106.999H137.365V114ZM138.291 106.021C138.952 106.021 139.383 105.634 139.383 105.088C139.383 104.536 138.952 104.155 138.291 104.155C137.625 104.155 137.2 104.536 137.2 105.088C137.2 105.634 137.625 106.021 138.291 106.021ZM143.057 109.734H142.943V104.326H141.096V114H142.943V111.677L143.451 111.156L145.495 114H147.685L144.835 110.001L147.501 106.999H145.4L143.057 109.734ZM151.41 108.262C152.273 108.262 152.831 108.839 152.87 109.766H149.886C149.95 108.858 150.553 108.262 151.41 108.262ZM152.908 112.007C152.711 112.47 152.209 112.73 151.479 112.73C150.515 112.73 149.905 112.083 149.88 111.042V110.947H154.685V110.382C154.685 108.16 153.466 106.846 151.403 106.846C149.321 106.846 148.039 108.255 148.039 110.534C148.039 112.807 149.296 114.152 151.429 114.152C153.142 114.152 154.349 113.327 154.628 112.007H152.908ZM159.976 105.335V107.068H158.885V108.522H159.976V112.108C159.976 113.473 160.649 114.025 162.35 114.025C162.706 114.025 163.049 113.987 163.277 113.943V112.534C163.1 112.553 162.973 112.559 162.731 112.559C162.103 112.559 161.824 112.28 161.824 111.67V108.522H163.277V107.068H161.824V105.335H159.976ZM167.821 114.152C169.973 114.152 171.268 112.788 171.268 110.496C171.268 108.224 169.954 106.846 167.821 106.846C165.688 106.846 164.374 108.23 164.374 110.496C164.374 112.788 165.669 114.152 167.821 114.152ZM167.821 112.642C166.831 112.642 166.272 111.861 166.272 110.496C166.272 109.15 166.837 108.357 167.821 108.357C168.798 108.357 169.37 109.15 169.37 110.496C169.37 111.854 168.805 112.642 167.821 112.642ZM178.552 112.718C177.911 112.718 177.461 112.4 177.461 111.88C177.461 111.378 177.848 111.093 178.641 111.036L180.057 110.947V111.461C180.057 112.172 179.409 112.718 178.552 112.718ZM177.943 114.108C178.851 114.108 179.612 113.727 179.974 113.086H180.089V114H181.879V109.22C181.879 107.722 180.831 106.846 178.978 106.846C177.219 106.846 176.032 107.659 175.912 108.954H177.613C177.765 108.535 178.21 108.306 178.876 108.306C179.638 108.306 180.057 108.636 180.057 109.22V109.792L178.362 109.893C176.623 109.995 175.652 110.731 175.652 112C175.652 113.283 176.597 114.108 177.943 114.108ZM189.837 109.468C189.685 107.875 188.574 106.846 186.721 106.846C184.531 106.846 183.299 108.16 183.299 110.483C183.299 112.832 184.537 114.152 186.721 114.152C188.542 114.152 189.685 113.143 189.837 111.575H188.111C187.971 112.267 187.476 112.635 186.721 112.635C185.73 112.635 185.165 111.88 185.165 110.483C185.165 109.106 185.724 108.363 186.721 108.363C187.508 108.363 187.984 108.801 188.111 109.468H189.837ZM197.428 109.468C197.276 107.875 196.165 106.846 194.311 106.846C192.121 106.846 190.89 108.16 190.89 110.483C190.89 112.832 192.128 114.152 194.311 114.152C196.133 114.152 197.276 113.143 197.428 111.575H195.701C195.562 112.267 195.067 112.635 194.311 112.635C193.321 112.635 192.756 111.88 192.756 110.483C192.756 109.106 193.315 108.363 194.311 108.363C195.098 108.363 195.574 108.801 195.701 109.468H197.428ZM201.851 108.262C202.714 108.262 203.273 108.839 203.311 109.766H200.328C200.391 108.858 200.994 108.262 201.851 108.262ZM203.349 112.007C203.152 112.47 202.651 112.73 201.921 112.73C200.956 112.73 200.347 112.083 200.321 111.042V110.947H205.126V110.382C205.126 108.16 203.908 106.846 201.845 106.846C199.763 106.846 198.48 108.255 198.48 110.534C198.48 112.807 199.737 114.152 201.87 114.152C203.584 114.152 204.79 113.327 205.069 112.007H203.349ZM206.433 109.055C206.433 110.134 207.093 110.782 208.451 111.08L209.721 111.366C210.337 111.499 210.603 111.708 210.603 112.051C210.603 112.502 210.108 112.8 209.391 112.8C208.654 112.8 208.204 112.527 208.064 112.051H206.261C206.388 113.397 207.506 114.152 209.353 114.152C211.187 114.152 212.438 113.238 212.438 111.842C212.438 110.794 211.828 110.223 210.47 109.925L209.156 109.639C208.508 109.493 208.21 109.284 208.21 108.941C208.21 108.497 208.699 108.198 209.359 108.198C210.045 108.198 210.47 108.478 210.565 108.928H212.273C212.171 107.589 211.124 106.846 209.346 106.846C207.601 106.846 206.433 107.729 206.433 109.055ZM213.617 109.055C213.617 110.134 214.277 110.782 215.636 111.08L216.905 111.366C217.521 111.499 217.788 111.708 217.788 112.051C217.788 112.502 217.292 112.8 216.575 112.8C215.839 112.8 215.388 112.527 215.248 112.051H213.446C213.573 113.397 214.69 114.152 216.537 114.152C218.371 114.152 219.622 113.238 219.622 111.842C219.622 110.794 219.013 110.223 217.654 109.925L216.34 109.639C215.693 109.493 215.394 109.284 215.394 108.941C215.394 108.497 215.883 108.198 216.543 108.198C217.229 108.198 217.654 108.478 217.749 108.928H219.457C219.355 107.589 218.308 106.846 216.531 106.846C214.785 106.846 213.617 107.729 213.617 109.055ZM224.913 105.335V107.068H223.822V108.522H224.913V112.108C224.913 113.473 225.586 114.025 227.288 114.025C227.643 114.025 227.986 113.987 228.214 113.943V112.534C228.037 112.553 227.91 112.559 227.668 112.559C227.04 112.559 226.761 112.28 226.761 111.67V108.522H228.214V107.068H226.761V105.335H224.913ZM229.768 114H231.615V109.982C231.615 109.074 232.149 108.458 233.075 108.458C233.913 108.458 234.364 108.96 234.364 109.931V114H236.211V109.493C236.211 107.811 235.316 106.865 233.812 106.865C232.783 106.865 232.022 107.348 231.698 108.147H231.584V104.326H229.768V114ZM240.983 108.262C241.847 108.262 242.405 108.839 242.443 109.766H239.46C239.523 108.858 240.126 108.262 240.983 108.262ZM242.481 112.007C242.285 112.47 241.783 112.73 241.053 112.73C240.088 112.73 239.479 112.083 239.454 111.042V110.947H244.259V110.382C244.259 108.16 243.04 106.846 240.977 106.846C238.895 106.846 237.613 108.255 237.613 110.534C237.613 112.807 238.87 114.152 241.002 114.152C242.716 114.152 243.922 113.327 244.202 112.007H242.481ZM91.5539 130H93.4011V125.785C93.4011 125.004 93.9153 124.439 94.6389 124.439C95.3625 124.439 95.7942 124.865 95.7942 125.607V130H97.5715V125.715C97.5715 124.973 98.0539 124.439 98.803 124.439C99.5837 124.439 99.9709 124.852 99.9709 125.684V130H101.818V125.195C101.818 123.754 100.948 122.846 99.552 122.846C98.5744 122.846 97.7683 123.36 97.4446 124.141H97.3303C97.051 123.329 96.3782 122.846 95.3943 122.846C94.4739 122.846 93.7439 123.341 93.4582 124.141H93.344V122.999H91.5539V130ZM103.575 130H105.422V122.999H103.575V130ZM104.502 122.021C105.162 122.021 105.594 121.634 105.594 121.088C105.594 120.536 105.162 120.155 104.502 120.155C103.835 120.155 103.41 120.536 103.41 121.088C103.41 121.634 103.835 122.021 104.502 122.021ZM113.438 125.468C113.286 123.875 112.175 122.846 110.322 122.846C108.132 122.846 106.9 124.16 106.9 126.483C106.9 128.832 108.138 130.152 110.322 130.152C112.143 130.152 113.286 129.143 113.438 127.575H111.712C111.572 128.267 111.077 128.635 110.322 128.635C109.331 128.635 108.766 127.88 108.766 126.483C108.766 125.106 109.325 124.363 110.322 124.363C111.109 124.363 111.585 124.801 111.712 125.468H113.438ZM114.833 130H116.681V126.122C116.681 125.138 117.373 124.541 118.382 124.541C118.68 124.541 119.112 124.598 119.258 124.655V122.973C119.099 122.916 118.788 122.884 118.534 122.884C117.646 122.884 116.922 123.417 116.738 124.116H116.624V122.999H114.833V130ZM123.383 130.152C125.534 130.152 126.829 128.788 126.829 126.496C126.829 124.224 125.515 122.846 123.383 122.846C121.25 122.846 119.936 124.23 119.936 126.496C119.936 128.788 121.231 130.152 123.383 130.152ZM123.383 128.642C122.392 128.642 121.834 127.861 121.834 126.496C121.834 125.15 122.399 124.357 123.383 124.357C124.36 124.357 124.931 125.15 124.931 126.496C124.931 127.854 124.366 128.642 123.383 128.642ZM132.332 122.884C131.367 122.884 130.573 123.36 130.192 124.147H130.078V122.999H128.288V132.323H130.135V128.927H130.25C130.592 129.67 131.36 130.108 132.363 130.108C134.115 130.108 135.188 128.756 135.188 126.496C135.188 124.23 134.103 122.884 132.332 122.884ZM131.703 128.565C130.726 128.565 130.116 127.785 130.116 126.502C130.116 125.22 130.726 124.433 131.709 124.433C132.693 124.433 133.29 125.214 133.29 126.496C133.29 127.791 132.7 128.565 131.703 128.565ZM136.704 130H138.551V125.982C138.551 125.074 139.084 124.458 140.011 124.458C140.849 124.458 141.3 124.96 141.3 125.931V130H143.147V125.493C143.147 123.811 142.252 122.865 140.747 122.865C139.719 122.865 138.957 123.348 138.634 124.147H138.519V120.326H136.704V130ZM147.995 130.152C150.147 130.152 151.442 128.788 151.442 126.496C151.442 124.224 150.128 122.846 147.995 122.846C145.862 122.846 144.548 124.23 144.548 126.496C144.548 128.788 145.843 130.152 147.995 130.152ZM147.995 128.642C147.005 128.642 146.446 127.861 146.446 126.496C146.446 125.15 147.011 124.357 147.995 124.357C148.973 124.357 149.544 125.15 149.544 126.496C149.544 127.854 148.979 128.642 147.995 128.642ZM152.901 130H154.748V125.963C154.748 125.042 155.275 124.439 156.132 124.439C157.008 124.439 157.42 124.947 157.42 125.912V130H159.267V125.474C159.267 123.798 158.429 122.846 156.874 122.846C155.84 122.846 155.129 123.335 154.805 124.122H154.691V122.999H152.901V130ZM164.04 124.262C164.903 124.262 165.461 124.839 165.5 125.766H162.516C162.58 124.858 163.183 124.262 164.04 124.262ZM165.538 128.007C165.341 128.47 164.839 128.73 164.109 128.73C163.145 128.73 162.535 128.083 162.51 127.042V126.947H167.315V126.382C167.315 124.16 166.096 122.846 164.033 122.846C161.951 122.846 160.669 124.255 160.669 126.534C160.669 128.807 161.926 130.152 164.059 130.152C165.772 130.152 166.979 129.327 167.258 128.007H165.538ZM170.113 130.171C170.799 130.171 171.237 129.708 171.237 129.067C171.237 128.426 170.799 127.969 170.113 127.969C169.434 127.969 168.99 128.426 168.99 129.067C168.99 129.708 169.434 130.171 170.113 130.171Z" fill="#272525"/>
<path d="M23.7968 160V152.494H26.5214V151.545H20.0175V152.494H22.7421V160H23.7968ZM28.032 160H29.0398V156.262C29.0398 155.195 29.6609 154.48 30.7917 154.48C31.7468 154.48 32.2507 155.037 32.2507 156.156V160H33.2585V155.91C33.2585 154.428 32.4148 153.572 31.0788 153.572C30.112 153.572 29.4499 153.982 29.1335 154.68H29.0398V151.176H28.032V160ZM35.0738 160H36.0816V153.684H35.0738V160ZM35.5777 152.4C35.9644 152.4 36.2808 152.084 36.2808 151.697C36.2808 151.311 35.9644 150.994 35.5777 150.994C35.191 150.994 34.8746 151.311 34.8746 151.697C34.8746 152.084 35.191 152.4 35.5777 152.4ZM37.809 155.412C37.809 156.326 38.3481 156.836 39.5317 157.123L40.6157 157.387C41.2895 157.551 41.6176 157.844 41.6176 158.277C41.6176 158.857 41.0082 159.262 40.1586 159.262C39.35 159.262 38.8461 158.922 38.6762 158.389H37.6391C37.7504 159.438 38.7172 160.111 40.1235 160.111C41.559 160.111 42.6547 159.332 42.6547 158.201C42.6547 157.293 42.0805 156.777 40.8911 156.49L39.9184 156.256C39.1743 156.074 38.8227 155.805 38.8227 155.371C38.8227 154.809 39.4086 154.428 40.1586 154.428C40.9203 154.428 41.4125 154.762 41.5473 155.266H42.5434C42.4086 154.229 41.4887 153.572 40.1645 153.572C38.8227 153.572 37.809 154.363 37.809 155.412ZM49.4728 159.227C48.7404 159.227 48.1954 158.852 48.1954 158.207C48.1954 157.574 48.6173 157.24 49.5783 157.176L51.2775 157.064V157.645C51.2775 158.547 50.5099 159.227 49.4728 159.227ZM49.2853 160.111C50.129 160.111 50.8204 159.742 51.2306 159.068H51.3243V160H52.2853V155.676C52.2853 154.363 51.424 153.572 49.8829 153.572C48.5353 153.572 47.5392 154.24 47.4044 155.254H48.424C48.5646 154.756 49.0919 154.469 49.8478 154.469C50.7911 154.469 51.2775 154.896 51.2775 155.676V156.25L49.4552 156.361C47.9845 156.449 47.1525 157.1 47.1525 158.23C47.1525 159.385 48.0607 160.111 49.2853 160.111ZM57.1767 153.572C56.3154 153.572 55.5596 154.012 55.1553 154.738H55.0615V153.684H54.1006V162.109H55.1084V159.051H55.2021C55.5478 159.719 56.2744 160.111 57.1767 160.111C58.7822 160.111 59.831 158.816 59.831 156.842C59.831 154.855 58.7881 153.572 57.1767 153.572ZM56.9365 159.203C55.7998 159.203 55.0791 158.289 55.0791 156.842C55.0791 155.389 55.7998 154.48 56.9424 154.48C58.0967 154.48 58.7881 155.365 58.7881 156.842C58.7881 158.318 58.0967 159.203 56.9365 159.203ZM64.4412 153.572C63.5799 153.572 62.8241 154.012 62.4198 154.738H62.326V153.684H61.3651V162.109H62.3729V159.051H62.4666C62.8123 159.719 63.5389 160.111 64.4412 160.111C66.0467 160.111 67.0955 158.816 67.0955 156.842C67.0955 154.855 66.0526 153.572 64.4412 153.572ZM64.201 159.203C63.0643 159.203 62.3436 158.289 62.3436 156.842C62.3436 155.389 63.0643 154.48 64.2069 154.48C65.3612 154.48 66.0526 155.365 66.0526 156.842C66.0526 158.318 65.3612 159.203 64.201 159.203ZM71.9683 160H72.9761V156.086C72.9761 155.195 73.6734 154.551 74.6343 154.551C74.8335 154.551 75.1968 154.586 75.2788 154.609V153.602C75.1499 153.584 74.939 153.572 74.7749 153.572C73.937 153.572 73.2105 154.006 73.023 154.621H72.9292V153.684H71.9683V160ZM78.8343 154.463C79.8363 154.463 80.5043 155.201 80.5277 156.32H77.0472C77.1234 155.201 77.8265 154.463 78.8343 154.463ZM80.4984 158.365C80.2347 158.922 79.684 159.221 78.8695 159.221C77.7972 159.221 77.1 158.43 77.0472 157.182V157.135H81.5883V156.748C81.5883 154.785 80.5511 153.572 78.8461 153.572C77.1117 153.572 75.9984 154.861 75.9984 156.848C75.9984 158.846 77.0941 160.111 78.8461 160.111C80.2289 160.111 81.2015 159.449 81.5062 158.365H80.4984ZM85.4485 153.572C83.8488 153.572 82.8059 154.861 82.8059 156.842C82.8059 158.834 83.8371 160.111 85.4485 160.111C86.3391 160.111 87.0188 159.742 87.4231 159.051H87.5168V162.109H88.5363V153.684H87.5637V154.738H87.4699C87.0949 154.029 86.3098 153.572 85.4485 153.572ZM85.677 159.203C84.5285 159.203 83.8488 158.324 83.8488 156.842C83.8488 155.365 84.5344 154.48 85.6828 154.48C86.8254 154.48 87.5461 155.395 87.5461 156.842C87.5461 158.295 86.8313 159.203 85.677 159.203ZM95.4962 153.684H94.4883V157.422C94.4883 158.529 93.879 159.191 92.7657 159.191C91.7579 159.191 91.336 158.664 91.336 157.527V153.684H90.3282V157.773C90.3282 159.268 91.0665 160.111 92.4844 160.111C93.4512 160.111 94.1251 159.713 94.4415 159.01H94.5352V160H95.4962V153.684ZM97.37 160H98.3778V153.684H97.37V160ZM97.8739 152.4C98.2607 152.4 98.5771 152.084 98.5771 151.697C98.5771 151.311 98.2607 150.994 97.8739 150.994C97.4872 150.994 97.1708 151.311 97.1708 151.697C97.1708 152.084 97.4872 152.4 97.8739 152.4ZM100.252 160H101.26V156.086C101.26 155.195 101.957 154.551 102.918 154.551C103.117 154.551 103.48 154.586 103.562 154.609V153.602C103.433 153.584 103.222 153.572 103.058 153.572C102.22 153.572 101.494 154.006 101.306 154.621H101.213V153.684H100.252V160ZM107.118 154.463C108.12 154.463 108.788 155.201 108.811 156.32H105.331C105.407 155.201 106.11 154.463 107.118 154.463ZM108.782 158.365C108.518 158.922 107.967 159.221 107.153 159.221C106.081 159.221 105.383 158.43 105.331 157.182V157.135H109.872V156.748C109.872 154.785 108.835 153.572 107.13 153.572C105.395 153.572 104.282 154.861 104.282 156.848C104.282 158.846 105.378 160.111 107.13 160.111C108.512 160.111 109.485 159.449 109.79 158.365H108.782ZM111.259 155.412C111.259 156.326 111.798 156.836 112.982 157.123L114.066 157.387C114.74 157.551 115.068 157.844 115.068 158.277C115.068 158.857 114.458 159.262 113.609 159.262C112.8 159.262 112.296 158.922 112.126 158.389H111.089C111.201 159.438 112.167 160.111 113.574 160.111C115.009 160.111 116.105 159.332 116.105 158.201C116.105 157.293 115.531 156.777 114.341 156.49L113.369 156.256C112.624 156.074 112.273 155.805 112.273 155.371C112.273 154.809 112.859 154.428 113.609 154.428C114.371 154.428 114.863 154.762 114.998 155.266H115.994C115.859 154.229 114.939 153.572 113.615 153.572C112.273 153.572 111.259 154.363 111.259 155.412ZM120.978 160H121.986V156.086C121.986 155.195 122.624 154.48 123.45 154.48C124.247 154.48 124.769 154.961 124.769 155.711V160H125.777V155.939C125.777 155.137 126.362 154.48 127.241 154.48C128.132 154.48 128.571 154.938 128.571 155.869V160H129.579V155.635C129.579 154.311 128.859 153.572 127.569 153.572C126.696 153.572 125.976 154.012 125.636 154.68H125.542C125.249 154.023 124.652 153.572 123.796 153.572C122.952 153.572 122.319 153.977 122.032 154.68H121.939V153.684H120.978V160ZM131.395 160H132.402V153.684H131.395V160ZM131.898 152.4C132.285 152.4 132.602 152.084 132.602 151.697C132.602 151.311 132.285 150.994 131.898 150.994C131.512 150.994 131.195 151.311 131.195 151.697C131.195 152.084 131.512 152.4 131.898 152.4ZM139.503 155.617C139.327 154.492 138.39 153.572 136.854 153.572C135.085 153.572 133.96 154.85 133.96 156.818C133.96 158.828 135.091 160.111 136.86 160.111C138.378 160.111 139.321 159.256 139.503 158.096H138.483C138.296 158.811 137.704 159.203 136.854 159.203C135.729 159.203 135.003 158.277 135.003 156.818C135.003 155.389 135.718 154.48 136.854 154.48C137.763 154.48 138.319 154.99 138.483 155.617H139.503ZM140.943 160H141.951V156.086C141.951 155.195 142.648 154.551 143.609 154.551C143.808 154.551 144.172 154.586 144.254 154.609V153.602C144.125 153.584 143.914 153.572 143.75 153.572C142.912 153.572 142.185 154.006 141.998 154.621H141.904V153.684H140.943V160ZM147.885 160.111C149.684 160.111 150.797 158.869 150.797 156.842C150.797 154.809 149.684 153.572 147.885 153.572C146.086 153.572 144.973 154.809 144.973 156.842C144.973 158.869 146.086 160.111 147.885 160.111ZM147.885 159.203C146.69 159.203 146.016 158.336 146.016 156.842C146.016 155.342 146.69 154.48 147.885 154.48C149.081 154.48 149.754 155.342 149.754 156.842C149.754 158.336 149.081 159.203 147.885 159.203ZM155.408 153.572C154.546 153.572 153.79 154.012 153.386 154.738H153.292V153.684H152.331V162.109H153.339V159.051H153.433C153.779 159.719 154.505 160.111 155.408 160.111C157.013 160.111 158.062 158.816 158.062 156.842C158.062 154.855 157.019 153.572 155.408 153.572ZM155.167 159.203C154.031 159.203 153.31 158.289 153.31 156.842C153.31 155.389 154.031 154.48 155.173 154.48C156.328 154.48 157.019 155.365 157.019 156.842C157.019 158.318 156.328 159.203 155.167 159.203ZM159.655 160H160.662V156.262C160.662 155.195 161.283 154.48 162.414 154.48C163.369 154.48 163.873 155.037 163.873 156.156V160H164.881V155.91C164.881 154.428 164.037 153.572 162.701 153.572C161.735 153.572 161.073 153.982 160.756 154.68H160.662V151.176H159.655V160ZM169.269 160.111C171.067 160.111 172.181 158.869 172.181 156.842C172.181 154.809 171.067 153.572 169.269 153.572C167.47 153.572 166.357 154.809 166.357 156.842C166.357 158.869 167.47 160.111 169.269 160.111ZM169.269 159.203C168.073 159.203 167.4 158.336 167.4 156.842C167.4 155.342 168.073 154.48 169.269 154.48C170.464 154.48 171.138 155.342 171.138 156.842C171.138 158.336 170.464 159.203 169.269 159.203ZM173.715 160H174.723V156.262C174.723 155.154 175.373 154.48 176.381 154.48C177.389 154.48 177.869 155.02 177.869 156.156V160H178.877V155.91C178.877 154.41 178.086 153.572 176.668 153.572C175.701 153.572 175.086 153.982 174.769 154.68H174.676V153.684H173.715V160ZM183.194 154.463C184.196 154.463 184.864 155.201 184.887 156.32H181.407C181.483 155.201 182.186 154.463 183.194 154.463ZM184.858 158.365C184.595 158.922 184.044 159.221 183.229 159.221C182.157 159.221 181.46 158.43 181.407 157.182V157.135H185.948V156.748C185.948 154.785 184.911 153.572 183.206 153.572C181.471 153.572 180.358 154.861 180.358 156.848C180.358 158.846 181.454 160.111 183.206 160.111C184.589 160.111 185.561 159.449 185.866 158.365H184.858ZM192.766 159.227C192.034 159.227 191.489 158.852 191.489 158.207C191.489 157.574 191.911 157.24 192.872 157.176L194.571 157.064V157.645C194.571 158.547 193.803 159.227 192.766 159.227ZM192.579 160.111C193.422 160.111 194.114 159.742 194.524 159.068H194.618V160H195.579V155.676C195.579 154.363 194.717 153.572 193.176 153.572C191.829 153.572 190.833 154.24 190.698 155.254H191.717C191.858 154.756 192.385 154.469 193.141 154.469C194.084 154.469 194.571 154.896 194.571 155.676V156.25L192.749 156.361C191.278 156.449 190.446 157.1 190.446 158.23C190.446 159.385 191.354 160.111 192.579 160.111ZM202.62 155.617C202.445 154.492 201.507 153.572 199.972 153.572C198.202 153.572 197.077 154.85 197.077 156.818C197.077 158.828 198.208 160.111 199.978 160.111C201.495 160.111 202.439 159.256 202.62 158.096H201.601C201.413 158.811 200.822 159.203 199.972 159.203C198.847 159.203 198.12 158.277 198.12 156.818C198.12 155.389 198.835 154.48 199.972 154.48C200.88 154.48 201.437 154.99 201.601 155.617H202.62ZM209.287 155.617C209.111 154.492 208.174 153.572 206.639 153.572C204.869 153.572 203.744 154.85 203.744 156.818C203.744 158.828 204.875 160.111 206.645 160.111C208.162 160.111 209.106 159.256 209.287 158.096H208.268C208.08 158.811 207.488 159.203 206.639 159.203C205.514 159.203 204.787 158.277 204.787 156.818C204.787 155.389 205.502 154.48 206.639 154.48C207.547 154.48 208.104 154.99 208.268 155.617H209.287ZM213.247 154.463C214.249 154.463 214.917 155.201 214.94 156.32H211.46C211.536 155.201 212.239 154.463 213.247 154.463ZM214.911 158.365C214.647 158.922 214.097 159.221 213.282 159.221C212.21 159.221 211.513 158.43 211.46 157.182V157.135H216.001V156.748C216.001 154.785 214.964 153.572 213.259 153.572C211.524 153.572 210.411 154.861 210.411 156.848C210.411 158.846 211.507 160.111 213.259 160.111C214.642 160.111 215.614 159.449 215.919 158.365H214.911ZM217.389 155.412C217.389 156.326 217.928 156.836 219.111 157.123L220.195 157.387C220.869 157.551 221.197 157.844 221.197 158.277C221.197 158.857 220.588 159.262 219.738 159.262C218.93 159.262 218.426 158.922 218.256 158.389H217.219C217.33 159.438 218.297 160.111 219.703 160.111C221.139 160.111 222.234 159.332 222.234 158.201C222.234 157.293 221.66 156.777 220.471 156.49L219.498 156.256C218.754 156.074 218.402 155.805 218.402 155.371C218.402 154.809 218.988 154.428 219.738 154.428C220.5 154.428 220.992 154.762 221.127 155.266H222.123C221.988 154.229 221.068 153.572 219.744 153.572C218.402 153.572 217.389 154.363 217.389 155.412ZM223.505 155.412C223.505 156.326 224.044 156.836 225.227 157.123L226.311 157.387C226.985 157.551 227.313 157.844 227.313 158.277C227.313 158.857 226.704 159.262 225.854 159.262C225.046 159.262 224.542 158.922 224.372 158.389H223.335C223.446 159.438 224.413 160.111 225.819 160.111C227.255 160.111 228.35 159.332 228.35 158.201C228.35 157.293 227.776 156.777 226.587 156.49L225.614 156.256C224.87 156.074 224.518 155.805 224.518 155.371C224.518 154.809 225.104 154.428 225.854 154.428C226.616 154.428 227.108 154.762 227.243 155.266H228.239C228.104 154.229 227.184 153.572 225.86 153.572C224.518 153.572 223.505 154.363 223.505 155.412ZM233.645 152.049V153.684H232.625V154.527H233.645V158.359C233.645 159.566 234.166 160.047 235.467 160.047C235.666 160.047 235.86 160.023 236.059 159.988V159.139C235.872 159.156 235.772 159.162 235.59 159.162C234.934 159.162 234.653 158.846 234.653 158.102V154.527H236.059V153.684H234.653V152.049H233.645ZM240.036 160.111C241.835 160.111 242.949 158.869 242.949 156.842C242.949 154.809 241.835 153.572 240.036 153.572C238.238 153.572 237.124 154.809 237.124 156.842C237.124 158.869 238.238 160.111 240.036 160.111ZM240.036 159.203C238.841 159.203 238.167 158.336 238.167 156.842C238.167 155.342 238.841 154.48 240.036 154.48C241.232 154.48 241.906 155.342 241.906 156.842C241.906 158.336 241.232 159.203 240.036 159.203ZM27.91 173.227C27.1776 173.227 26.6327 172.852 26.6327 172.207C26.6327 171.574 27.0546 171.24 28.0155 171.176L29.7147 171.064V171.645C29.7147 172.547 28.9472 173.227 27.91 173.227ZM27.7225 174.111C28.5663 174.111 29.2577 173.742 29.6679 173.068H29.7616V174H30.7225V169.676C30.7225 168.363 29.8612 167.572 28.3202 167.572C26.9725 167.572 25.9765 168.24 25.8417 169.254H26.8612C27.0018 168.756 27.5292 168.469 28.285 168.469C29.2284 168.469 29.7147 168.896 29.7147 169.676V170.25L27.8925 170.361C26.4218 170.449 25.5897 171.1 25.5897 172.23C25.5897 173.385 26.4979 174.111 27.7225 174.111ZM32.5964 174H33.6042V165.176H32.5964V174ZM35.5719 174H36.5797V165.176H35.5719V174ZM41.0844 174.111C42.8832 174.111 43.9965 172.869 43.9965 170.842C43.9965 168.809 42.8832 167.572 41.0844 167.572C39.2856 167.572 38.1723 168.809 38.1723 170.842C38.1723 172.869 39.2856 174.111 41.0844 174.111ZM41.0844 173.203C39.8891 173.203 39.2153 172.336 39.2153 170.842C39.2153 169.342 39.8891 168.48 41.0844 168.48C42.2797 168.48 42.9535 169.342 42.9535 170.842C42.9535 172.336 42.2797 173.203 41.0844 173.203ZM53.2415 167.684H52.2278L50.9856 172.734H50.8919L49.4798 167.684H48.513L47.1009 172.734H47.0071L45.7649 167.684H44.7454L46.5149 174H47.5345L48.9407 169.113H49.0345L50.4466 174H51.472L53.2415 167.684ZM58.3017 166.049V167.684H57.2822V168.527H58.3017V172.359C58.3017 173.566 58.8232 174.047 60.124 174.047C60.3232 174.047 60.5166 174.023 60.7158 173.988V173.139C60.5283 173.156 60.4287 173.162 60.247 173.162C59.5908 173.162 59.3095 172.846 59.3095 172.102V168.527H60.7158V167.684H59.3095V166.049H58.3017ZM62.2498 174H63.2576V170.262C63.2576 169.195 63.8787 168.48 65.0096 168.48C65.9647 168.48 66.4686 169.037 66.4686 170.156V174H67.4764V169.91C67.4764 168.428 66.6326 167.572 65.2967 167.572C64.3299 167.572 63.6678 167.982 63.3514 168.68H63.2576V165.176H62.2498V174ZM71.7878 168.463C72.7897 168.463 73.4577 169.201 73.4811 170.32H70.0007C70.0768 169.201 70.78 168.463 71.7878 168.463ZM73.4518 172.365C73.1882 172.922 72.6374 173.221 71.8229 173.221C70.7507 173.221 70.0534 172.43 70.0007 171.182V171.135H74.5417V170.748C74.5417 168.785 73.5046 167.572 71.7995 167.572C70.0651 167.572 68.9518 168.861 68.9518 170.848C68.9518 172.846 70.0475 174.111 71.7995 174.111C73.1823 174.111 74.155 173.449 74.4596 172.365H73.4518ZM80.4457 167.684H79.4379V174.328C79.4379 175.025 79.2035 175.307 78.4886 175.307H78.3363V176.168H78.5121C79.8363 176.168 80.4457 175.611 80.4457 174.311V167.684ZM79.9418 166.4C80.3285 166.4 80.6449 166.084 80.6449 165.697C80.6449 165.311 80.3285 164.994 79.9418 164.994C79.555 164.994 79.2386 165.311 79.2386 165.697C79.2386 166.084 79.555 166.4 79.9418 166.4ZM84.2649 173.227C83.5324 173.227 82.9875 172.852 82.9875 172.207C82.9875 171.574 83.4094 171.24 84.3703 171.176L86.0695 171.064V171.645C86.0695 172.547 85.302 173.227 84.2649 173.227ZM84.0774 174.111C84.9211 174.111 85.6125 173.742 86.0227 173.068H86.1164V174H87.0774V169.676C87.0774 168.363 86.216 167.572 84.675 167.572C83.3274 167.572 82.3313 168.24 82.1965 169.254H83.216C83.3567 168.756 83.884 168.469 84.6399 168.469C85.5832 168.469 86.0695 168.896 86.0695 169.676V170.25L84.2473 170.361C82.7766 170.449 81.9445 171.1 81.9445 172.23C81.9445 173.385 82.8528 174.111 84.0774 174.111ZM94.1192 169.617C93.9434 168.492 93.0059 167.572 91.4708 167.572C89.7012 167.572 88.5762 168.85 88.5762 170.818C88.5762 172.828 89.7071 174.111 91.4766 174.111C92.9942 174.111 93.9376 173.256 94.1192 172.096H93.0997C92.9122 172.811 92.3204 173.203 91.4708 173.203C90.3458 173.203 89.6192 172.277 89.6192 170.818C89.6192 169.389 90.334 168.48 91.4708 168.48C92.379 168.48 92.9356 168.99 93.0997 169.617H94.1192ZM96.7196 170.443H96.6259V165.176H95.6181V174H96.6259V171.604L97.2294 171.041L99.5966 174H100.88L97.9794 170.391L100.698 167.684H99.4618L96.7196 170.443ZM105.219 169.412C105.219 170.326 105.758 170.836 106.942 171.123L108.026 171.387C108.7 171.551 109.028 171.844 109.028 172.277C109.028 172.857 108.419 173.262 107.569 173.262C106.76 173.262 106.256 172.922 106.087 172.389H105.049C105.161 173.438 106.128 174.111 107.534 174.111C108.969 174.111 110.065 173.332 110.065 172.201C110.065 171.293 109.491 170.777 108.301 170.49L107.329 170.256C106.585 170.074 106.233 169.805 106.233 169.371C106.233 168.809 106.819 168.428 107.569 168.428C108.331 168.428 108.823 168.762 108.958 169.266H109.954C109.819 168.229 108.899 167.572 107.575 167.572C106.233 167.572 105.219 168.363 105.219 169.412ZM114.119 168.463C115.121 168.463 115.789 169.201 115.812 170.32H112.332C112.408 169.201 113.111 168.463 114.119 168.463ZM115.783 172.365C115.519 172.922 114.968 173.221 114.154 173.221C113.082 173.221 112.384 172.43 112.332 171.182V171.135H116.873V170.748C116.873 168.785 115.835 167.572 114.13 167.572C112.396 167.572 111.283 168.861 111.283 170.848C111.283 172.846 112.378 174.111 114.13 174.111C115.513 174.111 116.486 173.449 116.79 172.365H115.783ZM118.407 174H119.414V170.086C119.414 169.195 120.112 168.551 121.073 168.551C121.272 168.551 121.635 168.586 121.717 168.609V167.602C121.588 167.584 121.377 167.572 121.213 167.572C120.375 167.572 119.649 168.006 119.461 168.621H119.367V167.684H118.407V174ZM128.085 167.684H127.007L125.278 172.887H125.185L123.456 167.684H122.378L124.716 174H125.747L128.085 167.684ZM131.67 168.463C132.672 168.463 133.34 169.201 133.363 170.32H129.883C129.959 169.201 130.662 168.463 131.67 168.463ZM133.334 172.365C133.07 172.922 132.52 173.221 131.705 173.221C130.633 173.221 129.936 172.43 129.883 171.182V171.135H134.424V170.748C134.424 168.785 133.387 167.572 131.682 167.572C129.947 167.572 128.834 168.861 128.834 170.848C128.834 172.846 129.93 174.111 131.682 174.111C133.064 174.111 134.037 173.449 134.342 172.365H133.334ZM135.958 174H136.966V170.086C136.966 169.195 137.663 168.551 138.624 168.551C138.823 168.551 139.186 168.586 139.268 168.609V167.602C139.14 167.584 138.929 167.572 138.765 167.572C137.927 167.572 137.2 168.006 137.013 168.621H136.919V167.684H135.958V174ZM144.241 166.049V167.684H143.221V168.527H144.241V172.359C144.241 173.566 144.762 174.047 146.063 174.047C146.262 174.047 146.456 174.023 146.655 173.988V173.139C146.467 173.156 146.368 173.162 146.186 173.162C145.53 173.162 145.249 172.846 145.249 172.102V168.527H146.655V167.684H145.249V166.049H144.241ZM150.632 174.111C152.431 174.111 153.544 172.869 153.544 170.842C153.544 168.809 152.431 167.572 150.632 167.572C148.833 167.572 147.72 168.809 147.72 170.842C147.72 172.869 148.833 174.111 150.632 174.111ZM150.632 173.203C149.437 173.203 148.763 172.336 148.763 170.842C148.763 169.342 149.437 168.48 150.632 168.48C151.828 168.48 152.501 169.342 152.501 170.842C152.501 172.336 151.828 173.203 150.632 173.203ZM163.644 169.617C163.468 168.492 162.53 167.572 160.995 167.572C159.226 167.572 158.101 168.85 158.101 170.818C158.101 172.828 159.232 174.111 161.001 174.111C162.519 174.111 163.462 173.256 163.644 172.096H162.624C162.437 172.811 161.845 173.203 160.995 173.203C159.87 173.203 159.144 172.277 159.144 170.818C159.144 169.389 159.858 168.48 160.995 168.48C161.903 168.48 162.46 168.99 162.624 169.617H163.644ZM167.029 173.227C166.297 173.227 165.752 172.852 165.752 172.207C165.752 171.574 166.174 171.24 167.135 171.176L168.834 171.064V171.645C168.834 172.547 168.066 173.227 167.029 173.227ZM166.842 174.111C167.685 174.111 168.377 173.742 168.787 173.068H168.881V174H169.842V169.676C169.842 168.363 168.98 167.572 167.439 167.572C166.092 167.572 165.096 168.24 164.961 169.254H165.98C166.121 168.756 166.648 168.469 167.404 168.469C168.348 168.469 168.834 168.896 168.834 169.676V170.25L167.012 170.361C165.541 170.449 164.709 171.1 164.709 172.23C164.709 173.385 165.617 174.111 166.842 174.111ZM174.733 167.572C173.872 167.572 173.116 168.012 172.712 168.738H172.618V167.684H171.657V176.109H172.665V173.051H172.759C173.104 173.719 173.831 174.111 174.733 174.111C176.339 174.111 177.387 172.816 177.387 170.842C177.387 168.855 176.345 167.572 174.733 167.572ZM174.493 173.203C173.356 173.203 172.636 172.289 172.636 170.842C172.636 169.389 173.356 168.48 174.499 168.48C175.653 168.48 176.345 169.365 176.345 170.842C176.345 172.318 175.653 173.203 174.493 173.203ZM179.343 166.049V167.684H178.324V168.527H179.343V172.359C179.343 173.566 179.865 174.047 181.166 174.047C181.365 174.047 181.558 174.023 181.757 173.988V173.139C181.57 173.156 181.47 173.162 181.289 173.162C180.632 173.162 180.351 172.846 180.351 172.102V168.527H181.757V167.684H180.351V166.049H179.343ZM188.342 167.684H187.334V171.422C187.334 172.529 186.725 173.191 185.612 173.191C184.604 173.191 184.182 172.664 184.182 171.527V167.684H183.174V171.773C183.174 173.268 183.913 174.111 185.331 174.111C186.297 174.111 186.971 173.713 187.288 173.01H187.381V174H188.342V167.684ZM190.193 174H191.201V170.086C191.201 169.195 191.898 168.551 192.859 168.551C193.058 168.551 193.421 168.586 193.503 168.609V167.602C193.374 167.584 193.163 167.572 192.999 167.572C192.161 167.572 191.435 168.006 191.247 168.621H191.154V167.684H190.193V174ZM197.059 168.463C198.061 168.463 198.729 169.201 198.752 170.32H195.272C195.348 169.201 196.051 168.463 197.059 168.463ZM198.723 172.365C198.459 172.922 197.908 173.221 197.094 173.221C196.022 173.221 195.324 172.43 195.272 171.182V171.135H199.813V170.748C199.813 168.785 198.776 167.572 197.07 167.572C195.336 167.572 194.223 168.861 194.223 170.848C194.223 172.846 195.319 174.111 197.07 174.111C198.453 174.111 199.426 173.449 199.731 172.365H198.723ZM206.631 173.227C205.898 173.227 205.353 172.852 205.353 172.207C205.353 171.574 205.775 171.24 206.736 171.176L208.435 171.064V171.645C208.435 172.547 207.668 173.227 206.631 173.227ZM206.443 174.111C207.287 174.111 207.978 173.742 208.389 173.068H208.482V174H209.443V169.676C209.443 168.363 208.582 167.572 207.041 167.572C205.693 167.572 204.697 168.24 204.562 169.254H205.582C205.723 168.756 206.25 168.469 207.006 168.469C207.949 168.469 208.435 168.896 208.435 169.676V170.25L206.613 170.361C205.142 170.449 204.31 171.1 204.31 172.23C204.31 173.385 205.219 174.111 206.443 174.111ZM216.368 167.684H215.36V171.422C215.36 172.529 214.751 173.191 213.637 173.191C212.63 173.191 212.208 172.664 212.208 171.527V167.684H211.2V171.773C211.2 173.268 211.938 174.111 213.356 174.111C214.323 174.111 214.997 173.713 215.313 173.01H215.407V174H216.368V167.684ZM220.556 174.111C221.429 174.111 222.179 173.695 222.578 172.992H222.671V174H223.632V165.176H222.625V168.68H222.537C222.179 167.988 221.435 167.572 220.556 167.572C218.951 167.572 217.902 168.861 217.902 170.842C217.902 172.828 218.939 174.111 220.556 174.111ZM220.791 168.48C221.933 168.48 222.648 169.395 222.648 170.842C222.648 172.301 221.939 173.203 220.791 173.203C219.636 173.203 218.945 172.318 218.945 170.842C218.945 169.371 219.642 168.48 220.791 168.48ZM225.565 174H226.573V167.684H225.565V174ZM226.069 166.4C226.455 166.4 226.772 166.084 226.772 165.697C226.772 165.311 226.455 164.994 226.069 164.994C225.682 164.994 225.366 165.311 225.366 165.697C225.366 166.084 225.682 166.4 226.069 166.4ZM231.042 174.111C232.841 174.111 233.954 172.869 233.954 170.842C233.954 168.809 232.841 167.572 231.042 167.572C229.243 167.572 228.13 168.809 228.13 170.842C228.13 172.869 229.243 174.111 231.042 174.111ZM231.042 173.203C229.847 173.203 229.173 172.336 229.173 170.842C229.173 169.342 229.847 168.48 231.042 168.48C232.238 168.48 232.911 169.342 232.911 170.842C232.911 172.336 232.238 173.203 231.042 173.203ZM236.203 174.059C236.625 174.059 236.965 173.713 236.965 173.297C236.965 172.875 236.625 172.535 236.203 172.535C235.787 172.535 235.442 172.875 235.442 173.297C235.442 173.713 235.787 174.059 236.203 174.059Z" fill="#272525"/>
</svg>
