<svg width="24" height="24" viewBox="0 0 24 24" fill="none" xmlns="http://www.w3.org/2000/svg">
<path d="M18.8377 23.1914C17.9686 23.1914 17.2242 22.8816 16.6047 22.2621C15.9852 21.6426 15.6755 20.8983 15.6755 20.0291C15.6755 19.8997 15.6893 19.7471 15.7171 19.5714C15.7448 19.3957 15.7864 19.2339 15.8419 19.086L7.43689 14.2039C7.1595 14.5183 6.81738 14.7725 6.41054 14.9667C6.0037 15.1609 5.58761 15.258 5.16227 15.258C4.29311 15.258 3.54877 14.9482 2.92927 14.3287C2.30976 13.7092 2 12.9649 2 12.0957C2 11.208 2.30976 10.4591 2.92927 9.84882C3.54877 9.23856 4.29311 8.93343 5.16227 8.93343C5.58761 8.93343 5.99445 9.01664 6.3828 9.18308C6.77115 9.34951 7.12252 9.58992 7.43689 9.9043L15.8419 5.07767C15.7864 4.94822 15.7448 4.80028 15.7171 4.63384C15.6893 4.46741 15.6755 4.31022 15.6755 4.16227C15.6755 3.27462 15.9852 2.52566 16.6047 1.9154C17.2242 1.30513 17.9686 1 18.8377 1C19.7254 1 20.4743 1.30513 21.0846 1.9154C21.6949 2.52566 22 3.27462 22 4.16227C22 5.03144 21.6949 5.77577 21.0846 6.39529C20.4743 7.01479 19.7254 7.32455 18.8377 7.32455C18.4124 7.32455 18.0009 7.2552 17.6033 7.11651C17.2057 6.97781 16.8682 6.75127 16.5908 6.43689L8.18585 11.0971C8.22284 11.245 8.2552 11.4161 8.28294 11.6103C8.31068 11.8044 8.32455 11.9663 8.32455 12.0957C8.32455 12.2252 8.31068 12.3638 8.28294 12.5118C8.2552 12.6597 8.22284 12.8077 8.18585 12.9556L16.5908 17.7268C16.8682 17.4679 17.1919 17.2598 17.5617 17.1026C17.9316 16.9454 18.3569 16.8669 18.8377 16.8669C19.7254 16.8669 20.4743 17.172 21.0846 17.7822C21.6949 18.3925 22 19.1415 22 20.0291C22 20.8983 21.6949 21.6426 21.0846 22.2621C20.4743 22.8816 19.7254 23.1914 18.8377 23.1914Z" fill="#000000"/>
</svg>
