<?xml version="1.0" encoding="iso-8859-1"?>
<!-- Uploaded to: SVG Repo, www.svgrepo.com, Generator: SVG Repo Mixer Tools -->
<svg fill="#000000" height="800px" width="800px" version="1.1" id="Layer_1" xmlns="http://www.w3.org/2000/svg" xmlns:xlink="http://www.w3.org/1999/xlink" 
	 viewBox="0 0 462.587 462.587" xml:space="preserve">
<g id="XMLID_12_">
	<g>
		<path d="M457.012,206.595c-1.509-1.656-3.647-2.608-5.888-2.608h-15.69c0,0-54.307-103.321-57.115-108.681
			c-3.012-5.747-7.57-10.778-14.387-10.778c-33.177,0-64.138-7.079-87.179-19.935c-11.496-6.414-20.164-13.917-25.46-21.803V20
			c0-11.046-8.954-20-20-20c-11.046,0-20,8.954-20,20v22.79c-5.296,7.886-13.964,15.389-25.46,21.803
			c-23.042,12.855-54.003,19.935-87.18,19.935c-6.817,0-10.923,4.181-14.387,10.778c-8.099,15.424-57.114,108.681-57.114,108.681
			H11.463c-2.242,0-4.381,0.945-5.891,2.602c-1.51,1.658-2.25,3.874-2.045,6.107c4.394,47.706,44.521,85.063,93.374,85.063
			s88.98-37.357,93.374-85.063c0.205-2.231-0.539-4.445-2.048-6.101c-1.509-1.656-3.647-2.608-5.888-2.608h-15.69l-47.389-90.282
			c36.922-2.961,69.151-13.791,92.034-29.701v328.583h-90.649c-13.807,0-25,11.193-25,25s11.193,25,25,25h217.453
			c13.807,0,25-11.193,25-25s-11.193-25-25-25h-86.804V84.004c22.883,15.91,55.112,26.741,92.033,29.701l-47.389,90.282h-15.69
			c-2.242,0-4.381,0.945-5.891,2.602c-1.51,1.658-2.25,3.874-2.044,6.107c4.393,47.706,44.521,85.063,93.374,85.063
			c48.853,0,88.98-37.357,93.374-85.063C459.266,210.465,458.521,208.252,457.012,206.595z M132.767,203.987H61.034l35.866-68.33
			L132.767,203.987z M329.819,203.987l35.867-68.331l35.867,68.331H329.819z"/>
	</g>
</g>
</svg>