<svg xmlns="http://www.w3.org/2000/svg" height="240" viewBox="0 96 960 960" width="240"><path d="M421 676.692 320.077 574q-7.154-5.385-16.615-5.769-9.462-.385-15.847 6-7.154 7.154-7.154 16.615 0 9.462 7.154 15.616l109.923 110.154q9.049 11 23.371 11t24.553-11l227.153-226.385q5.616-6.385 6-15.846.385-9.462-6-16.847-7.384-6.153-16.961-6.038-9.577.115-15.731 6.269L421 676.692ZM480.134 952q-78.082 0-146.274-29.859-68.193-29.86-119.141-80.762-50.947-50.902-80.833-119.033Q104 654.215 104 576.134q0-77.569 29.918-146.371 29.919-68.803 80.922-119.917 51.003-51.114 119.032-80.48Q401.901 200 479.866 200q77.559 0 146.353 29.339 68.794 29.34 119.922 80.422 51.127 51.082 80.493 119.841Q856 498.361 856 575.95q0 78.358-29.339 146.21-29.34 67.853-80.408 118.902-51.069 51.048-119.81 80.993Q557.702 952 480.134 952ZM480 908.231q137.897 0 235.064-97.282Q812.231 713.666 812.231 576q0-137.897-97.167-235.064T480 243.769q-137.666 0-234.949 97.167Q147.769 438.103 147.769 576q0 137.666 97.282 234.949Q342.334 908.231 480 908.231ZM480 576Z"/></svg>