<svg xmlns="http://www.w3.org/2000/svg" height="48" viewBox="0 -960 960 960" width="48"><path d="M444-164q-27-11-40-41t2-59q8-15 40-80.5t70-145q38-79.5 74.5-155T643-754q3-7 10.5-10t15.5-1q8 2 13 9t3 15q-9 36-29.5 119T613-451.5q-22 87.5-41 159T547-206q-12 30-43 41.5t-60 .5Zm484-393q-13 13-31.5 13T864-556q-34-29-71-54t-71-41l23-90q54 24 98.5 55t84.5 66q14 12 14 30.5T928-557Zm-896 0q-13-13-13.5-32T32-620q92-84 207-132t241-48q24 0 54.5 2.5T594-790l-42 85q-16-2-34-3.5t-38-1.5q-108 0-204.5 41.5T96-556q-14 12-32.5 12T32-557Zm727 169q-13 13-30.5 13T696-387q-11-8-19-14t-14-11l22-92q16 9 34.5 22.5T759-450q14 12 14 30t-14 32Zm-558 0q-14-14-13-32.5t13-29.5q61-53 129-81.5T483-560l-45 93q-49 6-92.5 27T264-387q-15 12-32.5 12T201-388Z"/></svg>