<svg width="24" height="24" viewBox="0 0 24 24" fill="none" xmlns="http://www.w3.org/2000/svg">
<path d="M20.3642 8.55102L19.1342 10.401C19.7274 11.5841 20.0178 12.8958 19.9794 14.2187C19.941 15.5416 19.575 16.8343 18.9142 17.981H5.05424C4.19541 16.4911 3.83954 14.7641 4.03938 13.0561C4.23923 11.348 4.98415 9.74984 6.16372 8.49844C7.34329 7.24705 8.89471 6.40906 10.588 6.10871C12.2813 5.80837 14.0262 6.06165 15.5642 6.83102L17.4142 5.60102C15.5307 4.39323 13.2966 3.85202 11.0691 4.06395C8.8417 4.27588 6.74969 5.22871 5.12773 6.77003C3.50578 8.31134 2.4476 10.3521 2.12246 12.5658C1.79732 14.7796 2.22399 17.0384 3.33424 18.981C3.50875 19.2833 3.75933 19.5346 4.06107 19.7101C4.36282 19.8855 4.70521 19.9789 5.05424 19.981H18.9042C19.2567 19.9824 19.6032 19.8907 19.9087 19.7151C20.2143 19.5395 20.468 19.2862 20.6442 18.981C21.5656 17.3849 22.028 15.5653 21.9804 13.723C21.9327 11.8807 21.3769 10.0873 20.3742 8.54102L20.3642 8.55102Z" fill="black"/>
<path d="M10.5742 15.391C10.76 15.577 10.9806 15.7245 11.2234 15.8251C11.4662 15.9258 11.7264 15.9776 11.9892 15.9776C12.2521 15.9776 12.5123 15.9258 12.7551 15.8251C12.9979 15.7245 13.2185 15.577 13.4042 15.391L19.0642 6.90102L10.5742 12.561C10.3883 12.7468 10.2408 12.9673 10.1401 13.2101C10.0395 13.4529 9.98767 13.7132 9.98767 13.976C9.98767 14.2388 10.0395 14.4991 10.1401 14.7419C10.2408 14.9847 10.3883 15.2053 10.5742 15.391Z" fill="black"/>
</svg>
