<?xml version="1.0" encoding="UTF-8" standalone="no"?>
<svg
   xmlns:dc="http://purl.org/dc/elements/1.1/"
   xmlns:cc="http://creativecommons.org/ns#"
   xmlns:rdf="http://www.w3.org/1999/02/22-rdf-syntax-ns#"
   xmlns:svg="http://www.w3.org/2000/svg"
   xmlns="http://www.w3.org/2000/svg"
   version="1.1"
   id="svg2"
   xml:space="preserve"
   width="1365.3333"
   height="1365.3333"
   viewBox="0 0 1365.3333 1365.3333"><metadata
     id="metadata8"><rdf:RDF><cc:Work
         rdf:about=""><dc:format>image/svg+xml</dc:format><dc:type
           rdf:resource="http://purl.org/dc/dcmitype/StillImage" /><dc:title></dc:title></cc:Work></rdf:RDF></metadata><defs
     id="defs6"><clipPath
       clipPathUnits="userSpaceOnUse"
       id="clipPath24"><path
         d="M 0,1024 H 1024 V 0 H 0 Z"
         id="path22" /></clipPath></defs><g
     id="g10"
     transform="matrix(1.3333333,0,0,-1.3333333,0,1365.3333)"><path
       d="m 681.391,888.908 h -31.223 v 19.043 h 31.223 z"
       style="fill:#d3d3d3;fill-opacity:1;fill-rule:nonzero;stroke:none"
       id="path12" /><g
       id="g14"
       transform="translate(665,280)"><path
         d="M 0,0 V 252.232"
         style="fill:none;stroke:#000000;stroke-width:42;stroke-linecap:butt;stroke-linejoin:miter;stroke-miterlimit:10;stroke-dasharray:none;stroke-opacity:1"
         id="path16" /></g><g
       id="g18"><g
         id="g20"
         clip-path="url(#clipPath24)"><g
           id="g26"
           transform="translate(312.3477,281.6523)"><path
             d="M 0,0 C 0,-97.73 79.082,-176.812 176.812,-176.812"
             style="fill:none;stroke:#000000;stroke-width:42;stroke-linecap:butt;stroke-linejoin:miter;stroke-miterlimit:10;stroke-dasharray:none;stroke-opacity:1"
             id="path28" /></g><g
           id="g30"
           transform="translate(487.96,105.0908)"><path
             d="M 0,0 C 97.73,0 176.812,79.081 176.812,176.812"
             style="fill:none;stroke:#000000;stroke-width:42;stroke-linecap:butt;stroke-linejoin:miter;stroke-miterlimit:10;stroke-dasharray:none;stroke-opacity:1"
             id="path32" /></g><g
           id="g34"
           transform="translate(626.5,747.5)"><path
             d="m 0,0 v -104.385 -81.524 c 0,-14.58 12.403,-26.4 27.703,-26.4 h 23.594 c 15.3,0 27.703,11.82 27.703,26.4 V 0 Z"
             style="fill:#5f709b;fill-opacity:1;fill-rule:nonzero;stroke:none"
             id="path36" /></g><g
           id="g38"
           transform="translate(626.5,747.5)"><path
             d="m 0,0 v -104.385 -81.524 c 0,-14.58 12.403,-26.4 27.703,-26.4 h 23.594 c 15.3,0 27.703,11.82 27.703,26.4 V 0 Z"
             style="fill:none;stroke:#000000;stroke-width:16;stroke-linecap:butt;stroke-linejoin:miter;stroke-miterlimit:10;stroke-dasharray:none;stroke-opacity:1"
             id="path40" /></g><path
           d="m 686,752 h -40 v 76 h 40 z"
           style="fill:#d3d3d3;fill-opacity:1;fill-rule:nonzero;stroke:#000000;stroke-width:10;stroke-linecap:butt;stroke-linejoin:miter;stroke-miterlimit:10;stroke-dasharray:none;stroke-opacity:1"
           id="path42" /><path
           d="m 686,834 h -40 v 24 h 40 z"
           style="fill:#d3d3d3;fill-opacity:1;fill-rule:nonzero;stroke:#000000;stroke-width:10;stroke-linecap:butt;stroke-linejoin:miter;stroke-miterlimit:10;stroke-dasharray:none;stroke-opacity:1"
           id="path44" /><path
           d="m 686,864 h -40 v 24 h 40 z"
           style="fill:#d3d3d3;fill-opacity:1;fill-rule:nonzero;stroke:#000000;stroke-width:10;stroke-linecap:butt;stroke-linejoin:miter;stroke-miterlimit:10;stroke-dasharray:none;stroke-opacity:1"
           id="path46" /><g
           id="g48"
           transform="translate(652.6396,908.0542)"><path
             d="M 0,0 -6.786,-16.832"
             style="fill:#d3d3d3;fill-opacity:1;fill-rule:nonzero;stroke:#000000;stroke-width:10;stroke-linecap:butt;stroke-linejoin:miter;stroke-miterlimit:10;stroke-dasharray:none;stroke-opacity:1"
             id="path50" /></g><g
           id="g52"
           transform="translate(686.5176,891.2578)"><path
             d="M 0,0 -6.786,16.832"
             style="fill:#d3d3d3;fill-opacity:1;fill-rule:nonzero;stroke:#000000;stroke-width:10;stroke-linecap:butt;stroke-linejoin:miter;stroke-miterlimit:10;stroke-dasharray:none;stroke-opacity:1"
             id="path54" /></g><g
           id="g56"
           transform="translate(655.8232,902.8623)"><path
             d="m 0,0 c -6.428,3.598 -10.772,10.473 -10.772,18.363 0,11.615 9.416,21.03 21.031,21.03 11.614,0 21.03,-9.415 21.03,-21.03 0,-8.028 -4.497,-15.004 -11.109,-18.549"
             style="fill:#d3d3d3;fill-opacity:1;fill-rule:nonzero;stroke:#000000;stroke-width:10;stroke-linecap:butt;stroke-linejoin:miter;stroke-miterlimit:10;stroke-dasharray:none;stroke-opacity:1"
             id="path58" /></g><g
           id="g60"
           transform="translate(260.0122,300.8564)"><path
             d="M 0,0 H 104.874"
             style="fill:#000000;fill-opacity:1;fill-rule:nonzero;stroke:#000000;stroke-width:25;stroke-linecap:butt;stroke-linejoin:miter;stroke-miterlimit:10;stroke-dasharray:none;stroke-opacity:1"
             id="path62" /></g><g
           id="g64"
           transform="translate(303.1138,271.2197)"><path
             d="M 0,0 C 0,15.936 -18.204,28.829 -40.7,28.829"
             style="fill:none;stroke:#000000;stroke-width:22;stroke-linecap:butt;stroke-linejoin:miter;stroke-miterlimit:10;stroke-dasharray:none;stroke-opacity:1"
             id="path66" /></g><g
           id="g68"
           transform="translate(322.312,272.6973)"><path
             d="M 0,0 C 0,14.682 16.772,26.562 37.5,26.562"
             style="fill:none;stroke:#000000;stroke-width:22;stroke-linecap:butt;stroke-linejoin:miter;stroke-miterlimit:10;stroke-dasharray:none;stroke-opacity:1"
             id="path70" /></g><path
           d="m 315.307,279.838 h -6.542 v 13.629 h 6.542 z"
           style="fill:#000000;fill-opacity:1;fill-rule:nonzero;stroke:#000000;stroke-width:25;stroke-linecap:butt;stroke-linejoin:miter;stroke-miterlimit:10;stroke-dasharray:none;stroke-opacity:1"
           id="path72" /></g></g></g></svg>
