<?xml version="1.0" encoding="UTF-8"?>
<svg width="16px" height="16px" viewBox="0 0 16 16" version="1.1" xmlns="http://www.w3.org/2000/svg" xmlns:xlink="http://www.w3.org/1999/xlink">
    <title>Artboard Copy 2</title>
    <g id="Artboard-Copy-2" stroke="none" stroke-width="1" fill="none" fill-rule="evenodd">
        <path d="M6.64639356,12.2679165 C6.65038057,12.2752708 6.6540828,12.2825243 6.65750023,12.2899793 L7.05325841,13.017447 C7.36339081,13.5859417 7.86480474,13.9691694 8.42289117,14.1277394 C8.98135732,14.2866117 9.59602131,14.2210278 10.1314198,13.8929067 C10.1378749,13.8889777 10.1442351,13.8853509 10.1506903,13.8818249 C10.6759314,13.5532001 11.0302057,13.0264132 11.1781997,12.4400869 C11.3279973,11.8467086 11.2661987,11.1938917 10.9568257,10.6251955 L8.43589642,5.99120302 C8.05883921,5.9779049 7.75687069,5.64938084 7.75687069,5.245803 C7.75687069,4.83396419 8.07155967,4.5 8.45972355,4.5 C8.84788742,4.5 9.16248147,4.83396419 9.16248147,5.245803 C9.16248147,5.37354556 9.13219918,5.49363163 9.07903905,5.59870694 L11.6000633,10.2329009 C12.0125289,10.9909946 12.0954967,11.8580926 11.8970955,12.6439914 C11.7016371,13.4181033 11.2325939,14.1155495 10.5356266,14.554992 C10.5174952,14.5688945 10.4980348,14.5810845 10.4775302,14.591461 C9.7693613,15.0154898 8.9628462,15.0988045 8.23075527,14.8906688 C7.49771506,14.6823315 6.83786496,14.1814356 6.42473481,13.4380505 C6.41267885,13.4194129 6.40214176,13.3995665 6.39312352,13.3787126 L6.01492717,12.6833821 C6.01094016,12.6768337 6.00685822,12.6701847 6.003156,12.6633341 C5.95948875,12.5831424 5.88629864,12.528338 5.80428016,12.5050663 C5.72207181,12.4817946 5.6330286,12.4901563 5.55803484,12.5359945 C5.38042305,12.6450996 5.15297364,12.5809261 5.05007082,12.3924353 C4.94726293,12.2039445 5.00782751,11.9625634 5.18543929,11.8533576 C5.43927891,11.6977092 5.73203934,11.6670832 5.99641605,11.742137 C6.26117248,11.8173922 6.50010828,11.9990325 6.64639356,12.2679165 Z M9.30469654,1.73361307 C9.30469654,2.13876486 8.96448358,2.46712705 8.54470965,2.46712705 C8.4146403,2.46712705 8.2922704,2.43551947 8.18509408,2.3800328 L6.66460699,3.22729446 C6.65793413,3.23155504 6.65115862,3.23571654 6.64417779,3.23958079 C6.24401178,3.4626174 5.97442843,3.82397435 5.86283775,4.22625272 C5.75104176,4.62882834 5.79693047,5.07173088 6.02760595,5.45736325 L6.04208091,5.4814405 C6.04639261,5.4885745 6.05039632,5.49580759 6.05419471,5.50313975 L9.20275585,10.7666451 C9.21938666,10.789137 9.233143,10.8130161 9.24423021,10.837886 C9.3830256,11.0932238 9.40786915,11.3818536 9.33518636,11.6435327 C9.26137431,11.9097696 9.08685348,12.1509385 8.82907595,12.3047158 C8.67190454,12.4111313 8.45344552,12.3967642 8.31300758,12.2612182 C8.15573351,12.1094225 8.15573351,11.8631013 8.31300758,11.7113057 C8.33795379,11.6885165 8.36546649,11.6678081 8.3964696,11.6504685 C8.47828907,11.6048902 8.53403308,11.528596 8.55774738,11.4430871 C8.581667,11.3569836 8.57324894,11.2638453 8.52674427,11.1853713 L5.35929382,5.89006021 C5.35487947,5.88361979 5.35056778,5.87708029 5.34656407,5.87034262 L5.33198645,5.84626537 C4.98961764,5.27376181 4.92073324,4.61911817 5.08539878,4.02570803 C5.25016697,3.43209973 5.64879309,2.89833776 6.24123998,2.56819206 C6.24863145,2.56403056 6.25612558,2.5602654 6.26372237,2.55659931 L7.78513339,1.70884223 C7.79868442,1.31518411 8.1335591,1 8.54470965,1 C8.96448358,1 9.30469654,1.32846128 9.30469654,1.73361307 Z" id="Fill-3" stroke="#FFFFFF" stroke-width="0.5" fill="#FFFFFF" fill-rule="nonzero"></path>
    </g>
</svg>