<?xml version="1.0" encoding="UTF-8"?>
<svg width="1366px" height="1366px" viewBox="0 0 1366 1366" version="1.1" xmlns="http://www.w3.org/2000/svg" xmlns:xlink="http://www.w3.org/1999/xlink">
    <title>jacktrip</title>
    <g id="Page-1" stroke="none" stroke-width="1" fill="none" fill-rule="evenodd">
        <g id="jacktrip">
            <path d="M754.755517,107 C789.35747,107 817.401215,135.042996 817.401215,169.633588 C817.401215,204.22418 789.35747,232.258717 754.755517,232.258717 C744.033904,232.258717 733.946957,229.56016 725.112416,224.822882 L599.778709,297.159431 C599.228666,297.523187 598.67016,297.878483 598.09473,298.2084 C565.109058,317.250568 542.88731,348.102093 533.688894,382.447362 C524.473554,416.818009 528.256159,454.631642 547.270732,487.555727 L548.463903,489.611367 C548.819315,490.220446 549.149341,490.837984 549.462443,491.463982 L808.998246,940.845596 C810.369123,942.765886 811.503059,944.804608 812.416977,946.927923 C823.857877,968.727864 825.90573,993.370171 819.91449,1015.71151 C813.830165,1038.44199 799.444418,1059.03223 778.195823,1072.16126 C765.240188,1081.24669 747.232618,1080.02007 735.656322,1068.44757 C722.692225,1055.48773 722.692225,1034.4576 735.656322,1021.49776 L735.664784,1021.49776 L735.715558,1021.54006 C737.712638,1019.55209 739.980509,1017.78407 742.536094,1016.30367 C749.280471,1012.41234 753.875448,1005.89858 755.830217,998.598096 C757.801911,991.246855 757.10801,983.294995 753.274631,976.59513 L753.23232,976.518995 L492.181782,524.498039 C491.817908,523.948176 491.462495,523.389854 491.132469,522.814613 L489.930836,520.758973 C461.709385,471.880411 456.031246,415.988985 469.604622,365.325484 C483.186459,314.645065 516.045198,269.074138 564.880579,240.887331 C565.489858,240.532035 566.107599,240.210577 566.733802,239.897579 L692.143668,167.518732 C693.260679,133.909433 720.864389,107 754.755517,107 M517.763026,1028.58676 C518.118438,1029.2043 518.448464,1029.81338 518.753104,1030.43937 L554.032033,1091.52489 L554.082806,1091.49105 C581.678054,1139.26143 626.375417,1171.44108 676.124716,1184.75622 C725.907863,1198.09673 780.700635,1192.58965 828.427467,1165.0373 C829.002897,1164.70738 829.569865,1164.40284 830.145295,1164.10676 C876.966671,1136.51211 908.547617,1092.27778 921.740193,1043.04392 C935.093551,993.217901 929.584656,938.400822 902.006333,890.647364 L677.284038,501.530698 C643.672162,500.414054 616.753891,472.827867 616.753891,438.939407 C616.753891,404.357275 644.806098,376.314278 679.408051,376.314278 C714.010004,376.314278 742.053749,404.357275 742.053749,438.939407 C742.053749,449.665959 739.354306,459.749594 734.615471,468.572775 L959.346229,857.70636 C996.114506,921.363539 1003.51047,994.173816 985.824466,1060.1658 C968.400787,1125.16802 926.589036,1183.73263 864.459533,1220.6411 C862.843252,1221.80004 861.1085,1222.82363 859.280664,1223.69496 C796.15262,1259.30068 724.257733,1266.29662 658.997214,1248.81945 C593.652073,1231.32536 534.831292,1189.27355 498.003779,1126.84299 C496.929079,1125.278 495.989774,1123.61149 495.185865,1121.86039 L461.472443,1063.47343 C461.117031,1062.92357 460.753156,1062.36525 460.42313,1061.79001 C456.530516,1055.0563 450.006157,1050.45438 442.694812,1048.50025 C435.366543,1046.54612 427.428996,1047.24825 420.743854,1051.10575 C404.91107,1060.26731 384.635629,1054.8702 375.4626,1039.04261 C366.298033,1023.21502 371.696919,1002.94624 387.529703,993.776223 C410.157637,980.706411 436.255075,978.143205 459.822314,984.437017 C483.423401,990.756208 504.722769,1006.00855 517.763026,1028.58676" id="Fill-1" fill="#F21B1B"></path>
            <rect id="Rectangle" x="0" y="0" width="1365.33" height="1365.33"></rect>
        </g>
    </g>
</svg>